<?xml version="1.0" encoding="utf-8"?>
<!-- Generator: Adobe Illustrator 23.0.5, SVG Export Plug-In . SVG Version: 6.00 Build 0)  -->
<svg version="1.1" id="Capa_1" xmlns="http://www.w3.org/2000/svg" xmlns:xlink="http://www.w3.org/1999/xlink" x="0px" y="0px"
	 viewBox="0 0 48 48" style="enable-background:new 0 0 48 48;" xml:space="preserve">
<style type="text/css">
	.st0{fill:#11B28E;}
</style>
<path class="st0" d="M23.8,0C1.7,0,0,1.7,0,23.8v0.4C0,46.3,1.7,48,23.8,48h0.4C46.3,48,48,46.3,48,24.2V24C48,1.7,46.3,0,24,0H23.8
	z M19.2,4.8h9.6c13.4,0,14.4,1,14.4,14.4v9.6c0,13.4-1,14.4-14.4,14.4h-9.6c-13.4,0-14.4-1-14.4-14.4v-9.6C4.8,5.8,5.8,4.8,19.2,4.8
	z M36,9.6c-1.3,0-2.4,1.1-2.4,2.4c0,1.3,1.1,2.4,2.4,2.4s2.4-1.1,2.4-2.4C38.4,10.7,37.3,9.6,36,9.6z M24,12c-6.6,0-12,5.4-12,12
	s5.4,12,12,12c6.6,0,12-5.4,12-12S30.6,12,24,12z M24,16.8c4,0,7.2,3.2,7.2,7.2c0,4-3.2,7.2-7.2,7.2S16.8,28,16.8,24
	C16.8,20,20,16.8,24,16.8z"/>
</svg>
