<?xml version="1.0" encoding="utf-8"?>
<!-- Generator: Adobe Illustrator 23.0.5, SVG Export Plug-In . SVG Version: 6.00 Build 0)  -->
<svg version="1.1" id="Capa_1" xmlns="http://www.w3.org/2000/svg" xmlns:xlink="http://www.w3.org/1999/xlink" x="0px" y="0px"
	 viewBox="0 0 203 96.7" style="enable-background:new 0 0 203 96.7;" xml:space="preserve">
<style type="text/css">
	.st0{fill:#030608;}
	.st1{fill:#66AD8D;}
	.st2{fill:#FFFFFF;}
	.st3{fill:#2C2C2C;}
</style>
<g>
	<g>
		<path id="XMLID_92_" class="st3" d="M24.4,60.2c-4.2,0-8.3-0.8-12.1-2.5c-3.7-1.6-7.1-3.9-10-6.6L2.2,51c-1.2-1.2-1.4-2.4-1.4-3.2
			c0-1.2,0.4-2.2,1.2-3.1c0.9-1,2.1-1.5,3.4-1.5c0.8,0,1.9,0.2,3,1.2c2.5,2.1,5.1,3.7,7.7,5c2.5,1.2,5.3,1.8,8.4,1.8
			c1.5,0,3.1-0.2,4.6-0.6c1.4-0.4,2.8-1,3.9-1.8c1.1-0.8,1.9-1.7,2.6-2.8c0.6-1,0.9-2.2,0.9-3.7c0-1-0.2-1.8-0.6-2.4
			c-0.5-0.8-1.2-1.5-2.1-2.1c-1-0.7-2.2-1.3-3.6-1.8c-1.6-0.5-3.1-1-4.7-1.4c-1.6-0.4-3.2-0.8-4.8-1.1c-1.7-0.3-3.2-0.7-4.4-1
			c-1.7-0.5-3.4-1.1-4.9-1.9c-1.7-0.8-3.2-1.9-4.4-3.2c-1.3-1.3-2.4-2.9-3.2-4.6c-0.8-1.8-1.2-3.8-1.2-6c0-2.9,0.7-5.5,2.1-7.7
			c1.3-2.1,3-3.8,5.1-5.2c2-1.3,4.1-2.3,6.5-2.9c2.3-0.6,4.6-1,6.9-1c1.4,0,3,0.1,4.8,0.4c1.7,0.3,3.5,0.7,5.2,1.2
			c1.8,0.6,3.4,1.2,5,2c1.7,0.9,3.1,1.9,4.3,3l0.1,0.1C42.7,7,42.9,7.2,43,7.4c0.5,0.7,0.8,1.6,0.8,2.6c0,1.2-0.5,2.3-1.4,3.2
			c-0.9,0.9-2,1.4-3.2,1.4c-0.9,0-1.6-0.3-2.2-0.6c-0.3-0.2-0.7-0.4-1.1-0.7c-0.3-0.2-0.5-0.3-0.7-0.5c-0.2-0.1-0.4-0.3-0.5-0.3
			c-1.7-1-3.6-1.9-5.5-2.5c-3.2-1-6.6-1.2-10.3-0.4c-1.4,0.3-2.7,0.9-3.9,1.6c-1,0.6-1.9,1.4-2.5,2.4c-0.5,0.8-0.8,1.8-0.8,3
			c0,1.4,0.3,2.4,0.8,3.2c0.7,0.9,1.5,1.7,2.7,2.3c1.3,0.7,2.9,1.3,4.6,1.8c2,0.5,4,1,6.2,1.5c2.2,0.5,4.4,1.1,6.4,1.6
			c2.3,0.7,4.5,1.6,6.3,2.8c2,1.3,3.7,2.9,4.9,4.9c1.3,2.1,2,4.7,2,7.8c0,3-0.7,5.7-2,8c-1.3,2.2-3,4.1-5.2,5.6
			c-2,1.4-4.3,2.4-6.7,3.1C29.3,59.8,26.8,60.2,24.4,60.2"/>
		<path id="XMLID_91_" class="st3" d="M68.9,0.2c1.5,0.3,2.8,1.3,3.3,2.9c0.1,0.3,0.4,1.1,1.2,3.1c0.7,1.7,1.5,3.8,2.5,6.3
			c1,2.5,2.1,5.2,3.3,8.2c1.2,3,2.4,6.1,3.7,9.2c1.2,3.1,2.4,6.1,3.6,9c1.2,2.9,2.2,5.5,3.1,7.8c0.9,2.3,1.6,4.1,2.2,5.5
			c1.1,2.7,1.1,2.7,1.1,3.5c0,1.2-0.5,2.3-1.3,3.2c-0.9,0.9-2,1.3-3.2,1.3c-2,0-3.7-1.2-4.3-3L68,17l0,0.1L52.5,57.3
			c-0.7,1.8-2.4,2.9-4.3,2.9c-0.3,0-0.5,0-0.7-0.1h-0.1L46.9,60c-1.9-0.6-3.2-2.3-3.2-4.4c0-0.7,0-0.8,1-3.4
			c0.5-1.4,1.2-3.3,2.1-5.5c0.9-2.3,1.9-4.9,3-7.8c1.1-2.9,2.3-5.9,3.4-9c1.2-3.1,2.4-6.1,3.5-9.2c1.2-3,2.2-5.7,3.2-8.2
			c1-2.5,1.8-4.6,2.4-6.3C63,4.5,63.4,3.5,63.6,3l0.1-0.2c0.6-1.4,1.8-2.3,3.2-2.6L68.9,0.2z"/>
		<path id="XMLID_90_" class="st3" d="M179.1,0.6c1.5,0.3,2.8,1.3,3.3,2.9c0.1,0.3,0.4,1.1,1.2,3.1c0.7,1.7,1.5,3.8,2.5,6.3
			c1,2.5,2.1,5.2,3.3,8.2c1.2,3,2.4,6.1,3.7,9.2c1.2,3.1,2.4,6.1,3.6,9c1.2,2.9,2.2,5.5,3.1,7.8c0.9,2.3,1.6,4.1,2.2,5.5
			c1.1,2.7,1.1,2.7,1.1,3.5c0,1.2-0.5,2.3-1.3,3.2c-0.9,0.9-2,1.3-3.2,1.3c-2,0-3.7-1.2-4.3-3l-16-40.2l0,0.1l-15.5,40.2
			c-0.7,1.8-2.4,2.9-4.3,2.9c-0.3,0-0.5,0-0.7-0.1h-0.1l-0.5-0.1c-1.9-0.6-3.2-2.3-3.2-4.4c0-0.7,0-0.8,1-3.4
			c0.5-1.4,1.2-3.3,2.1-5.5c0.9-2.3,1.9-4.9,3-7.8c1.1-2.9,2.3-5.9,3.4-9c1.2-3.1,2.4-6.1,3.5-9.2c1.2-3,2.2-5.7,3.2-8.2
			c1-2.5,1.8-4.6,2.4-6.3c0.6-1.7,1.1-2.7,1.2-3.2l0.1-0.2c0.6-1.4,1.8-2.3,3.2-2.6L179.1,0.6z"/>
		<path id="XMLID_86_" class="st3" d="M117,60.7h-14.7c-1.6,0-3-0.8-3.8-2.1c-0.5-0.8-0.7-1.7-0.7-2.6V5.1c0-2.6,1.9-4.5,4.6-4.5
			h13.4c2.2,0,4.4,0.4,6.4,1.3c2,0.8,3.7,2,5.2,3.5c1.4,1.5,2.6,3.2,3.5,5.1c0.9,2,1.3,4.1,1.3,6.4c0,3.1-0.8,6-2.4,8.6
			c-0.5,0.8-1.1,1.6-1.7,2.3c1.5,1.1,2.7,2.4,3.8,3.8c1.1,1.5,1.9,3.2,2.6,5c0.6,1.8,1,3.8,1,5.8c0,2.5-0.5,4.9-1.4,7.1
			c-0.9,2.2-2.3,4.1-3.9,5.8c-1.6,1.6-3.6,3-5.8,3.9C121.9,60.2,119.5,60.7,117,60.7 M106.7,51.6H117c1.3,0,2.5-0.2,3.5-0.7
			c1.1-0.5,2.1-1.1,2.9-2c0.8-0.8,1.5-1.8,2-2.9c0.5-1.1,0.7-2.3,0.7-3.6c0-1.3-0.2-2.4-0.7-3.5c-0.5-1.1-1.1-2.1-2-3
			c-0.8-0.8-1.8-1.5-2.9-2c-1.1-0.5-2.3-0.7-3.5-0.7c-0.3,0-0.5,0-0.8-0.1h-9.5V51.6z M106.7,24.1h9c1,0,1.9-0.2,2.8-0.6
			c0.9-0.4,1.7-0.9,2.4-1.6c0.7-0.7,1.2-1.4,1.6-2.3c0.4-0.9,0.6-1.7,0.6-2.7c0-1-0.2-1.9-0.6-2.8c-0.4-0.9-0.9-1.7-1.6-2.3
			c-0.7-0.7-1.4-1.2-2.4-1.6c-0.9-0.4-1.8-0.6-2.8-0.6h-9V24.1z"/>
		<path id="XMLID_85_" class="st3" d="M145.1,60.7c-1.2,0-2.3-0.5-3.2-1.3c-0.9-0.9-1.3-2-1.3-3.2V5.1c0-1.2,0.5-2.3,1.3-3.2
			c0.9-0.9,2-1.3,3.2-1.3c1.1,0,2.1,0.4,2.9,1c1.1,0.8,1.7,2.1,1.7,3.5v51.1c0,1.4-0.6,2.6-1.7,3.5
			C147.2,60.4,146.2,60.7,145.1,60.7"/>
		<path id="XMLID_84_" class="st1" d="M55.9,47.1c1.9,2.1,9,4.1,12.7,4.3c7.1,0.3,13.6-1.5,19.2-5.9c5.3-4.1,8.9-9.3,11.5-15.4
			c0-0.1,0.1-0.2,0.1-0.3c-0.1,0-0.2-0.1-0.3-0.1c-3.1-0.9-6.2-1.5-9.4-1.8c-6.3-0.5-12.4,0.3-18.2,3.1c-5.5,2.7-9.7,6.8-13.2,11.8
			c-0.4,0.6-0.8,1.2-1.1,1.8c0.7-0.2,1.3-0.6,1.9-0.9c6-3.1,11.1-6,17.7-8.6c2.9-1.2,7.1-2.5,10.7-3c1.5-0.1,3.6-0.4,6.6-0.4
			C77.2,34.7,78.9,36.2,55.9,47.1"/>
		<path id="XMLID_83_" class="st3" d="M52.1,47.4c0.2,0,1.9,0.2,3.4-0.3c23-10.9,21.3-12.4,38.3-15.4c-3,0-5.1,0.3-6.6,0.4
			c-3.6,0.5-7.8,1.8-10.7,3c-6.6,2.6-11.7,5.5-17.7,8.6c-0.6,0.3-1.2,0.6-1.9,0.9l-3.4,0.7"/>
	</g>
	<path class="st3" d="M194.9,96.7H8.1c-4.5,0-8.1-3.6-8.1-8.1V74.9c0-4.5,3.6-8.1,8.1-8.1h186.7c4.5,0,8.1,3.6,8.1,8.1v13.7
		C203,93.1,199.4,96.7,194.9,96.7 M21.2,86.4c-1.3,1.3-3.2,2-4.9,2c-4.8,0-6.6-3.3-6.7-6.6c0-3.2,2-6.7,6.7-6.7
		c1.7,0,3.4,0.6,4.7,1.8l2.4-2.4c-2-2-4.5-3-7.1-3c-7,0-10.3,5.1-10.3,10.2c0,5,3.1,10,10.3,10c2.8,0,5.4-0.9,7.4-2.9L21.2,86.4z
		 M38.8,72.1v11.1c0,3.3-1.7,5.3-4.7,5.3c-3,0-5-1.9-5-5.3V72.1h-3.6v11.1c0,5.8,4,8.7,8.6,8.7c4.9,0,8.4-2.9,8.4-8.7V72.1H38.8z
		 M46.1,72v19.4h13.6V88h-10V72H46.1z M64.4,91.4H68v-16h6.1V72H58.2v3.3h6.1V91.4z M90.3,72.1v11.1c0,3.3-1.7,5.3-4.7,5.3
		c-3,0-5-1.9-5-5.3V72.1H77v11.1c0,5.8,4,8.7,8.6,8.7c4.9,0,8.4-2.9,8.4-8.7V72.1H90.3z M114.7,91.1l-5.9-6.6
		c3.7-0.8,4.9-3.4,4.9-6.1c0-3.3-2.4-6.4-7-6.4c-3.1,0-6.1,0-9.2,0v19.4h3.6v-6.5h3.5l5.6,6.5h4.3V91.1z M106.8,75.4
		c2.3,0,3.3,1.5,3.3,3.1c0,1.5-1,3.1-3.3,3.1h-5.6v-6.2H106.8z M131.6,91.4h4L126.9,72h-4l-8.7,19.4h4l1.7-3.6H130L131.6,91.4z
		 M128.5,84.3h-7.2l3.6-8.2L128.5,84.3z M157,87.8h-10.9v-4.4h10.5V80h-10.5v-4.5H157V72h-14.5v19.4H157V87.8z M174.4,86.4
		c-1.3,1.3-3.2,2-4.9,2c-4.8,0-6.6-3.3-6.7-6.6c0-3.2,2-6.7,6.7-6.7c1.7,0,3.4,0.6,4.7,1.8l2.4-2.4c-2-2-4.5-3-7.1-3
		c-7,0-10.3,5.1-10.3,10.2c0,5,3.1,10,10.3,10c2.8,0,5.4-0.9,7.4-2.9L174.4,86.4z M198,81.8c0.1-5.1-3.3-10.2-9.9-10.2
		c-6.7,0-10,5.1-10,10.2c0,5.1,3.1,10,10,10C194.9,91.8,197.9,86.8,198,81.8 M181.7,81.9c-0.1-3.3,1.8-6.9,6.4-6.9
		c4.6,0,6.4,3.6,6.3,6.9c-0.1,3.2-1.8,6.6-6.3,6.6C183.5,88.5,181.8,85.1,181.7,81.9"/>
</g>
</svg>
